Coordinates
version=1
nRows=16
nColumns=40
inDegrees=yes

Units are S.I. units (second, meters, Newtons, ...)
Angles are in degrees.

endheader
time	pelvis_tilt	pelvis_list	pelvis_rotation	pelvis_tx	pelvis_ty	pelvis_tz	hip_flexion_r	hip_adduction_r	hip_rotation_r	knee_angle_r	knee_angle_r_beta	ankle_angle_r	subtalar_angle_r	mtp_angle_r	hip_flexion_l	hip_adduction_l	hip_rotation_l	knee_angle_l	knee_angle_l_beta	ankle_angle_l	subtalar_angle_l	mtp_angle_l	lumbar_extension	lumbar_bending	lumbar_rotation	arm_flex_r	arm_add_r	arm_rot_r	elbow_flex_r	pro_sup_r	wrist_flex_r	wrist_dev_r	arm_flex_l	arm_add_l	arm_rot_l	elbow_flex_l	pro_sup_l	wrist_flex_l	wrist_dev_l
     48.29000000	     -4.75691242	     -3.36834448	     -1.79050036	      1.12162235	      0.93406607	      0.42141866	     31.58723864	     -9.57172872	     -8.92086088	     68.02910383	     68.02910383	      5.66087590	    -13.32843715	      0.71436687	     15.38433190	     -4.36933455	    -13.06146137	     19.58414643	     19.58414643	     12.32033373	     -3.21693380	     -4.54840109	     -9.23655984	      2.97411871	      0.69688636	     18.22275848	    -13.94597617	     -1.48525667	     78.88471127	     45.57939643	      0.00000000	      0.00000000	     10.75261092	    -13.41628673	      7.00220919	     29.19330921	     45.29154727	      0.00000000	      0.00000000
     48.30171429	     -4.63392591	     -3.41563589	     -1.87946707	      1.12070526	      0.93424808	      0.42064531	     32.55079305	     -9.52121079	     -8.79166688	     65.71566164	     65.71566164	      5.20628307	    -13.14607977	     -0.47792323	     14.43201155	     -4.27355986	    -12.98660868	     19.24462583	     19.24462583	     12.68391418	     -3.35493156	     -4.87373823	     -9.39607132	      3.16533846	      0.67533162	     15.37441734	    -14.01801400	     -1.84880303	     75.70730961	     45.65891302	      0.00000000	      0.00000000	     13.15109668	    -14.01233235	      6.91373462	     29.61225423	     45.37964620	      0.00000000	      0.00000000
     48.31342857	     -4.53523420	     -3.48551310	     -1.88936013	      1.11978283	      0.93419721	      0.41990559	     33.37509035	     -9.45669244	     -8.77026847	     63.22225790	     63.22225790	      5.07728565	    -12.72601012	     -0.29029242	     13.62471842	     -4.23297352	    -12.87564263	     19.11388910	     19.11388910	     13.19264770	     -3.37208942	     -5.05717739	     -9.58869109	      3.40578225	      0.12836281	     12.47873665	    -13.98084304	     -1.59158710	     73.94246255	     45.69286175	      0.00000000	      0.00000000	     15.10888452	    -14.94550608	      6.72074697	     30.36594744	     45.44072299	      0.00000000	      0.00000000
     48.32514286	     -4.37246711	     -3.48916203	     -2.02338667	      1.11898199	      0.93439606	      0.41924052	     33.89258380	     -9.33292527	     -8.63971031	     60.29060084	     60.29060084	      4.56068608	    -12.49667500	     -0.88853607	     12.55318991	     -4.07130347	    -12.83736447	     18.61101725	     18.61101725	     13.45476791	     -3.56668368	     -5.33522004	     -9.77281277	      3.51028360	      0.70366762	     10.40294029	    -13.90189113	     -3.08814136	     68.06819849	     45.90824568	      0.00000000	      0.00000000	     17.84194579	    -15.14114535	      6.81459625	     30.72479166	     45.49814865	      0.00000000	      0.00000000
     48.33685714	     -4.28746093	     -3.57535798	     -2.03389267	      1.11820629	      0.93422828	      0.41869654	     34.33663815	     -9.15339294	     -8.70352209	     57.21227538	     57.21227538	      4.31747503	    -12.07905182	     -0.49340089	     11.71538730	     -4.04801423	    -12.71582749	     18.37925790	     18.37925790	     13.94221059	     -3.55382016	     -5.50172180	     -9.96408563	      3.78597091	      0.43567244	      7.68865236	    -13.96245863	     -2.98261713	     66.00198713	     45.95666896	      0.00000000	      0.00000000	     19.81303681	    -15.91518996	      6.61812241	     31.57099133	     45.55931586	      0.00000000	      0.00000000
     48.34857143	     -4.16193305	     -3.52705216	     -2.18424466	      1.11750893	      0.93421857	      0.41837117	     34.56411231	     -8.95180098	     -8.60773213	     53.76357997	     53.76357997	      3.86785090	    -11.77107318	     -0.44963882	     10.70745593	     -3.87524284	    -12.78353937	     17.91195066	     17.91195066	     14.17687497	     -3.63992233	     -5.79404244	    -10.10592253	      3.80612224	      0.83097544	      6.43866611	    -13.48664871	     -4.81880396	     59.28933864	     46.21233351	      0.00000000	      0.00000000	     22.18527331	    -16.18025209	      6.53549158	     32.16534265	     45.63011180	      0.00000000	      0.00000000
     48.36028571	     -4.07783648	     -3.57980217	     -2.26270031	      1.11689063	      0.93401230	      0.41810911	     34.64179102	     -8.66555150	     -8.73630583	     50.07417545	     50.07417545	      3.52222312	    -11.26040301	      0.11019495	      9.80520754	     -3.83075190	    -12.77181360	     17.56859914	     17.56859914	     14.58270162	     -3.59063924	     -5.91474592	    -10.31067563	      4.05705184	      1.05561013	      4.02257774	    -13.71337864	     -4.94693874	     56.68235547	     46.28567009	      0.00000000	      0.00000000	     24.12123058	    -16.57185697	      6.29373345	     33.32769406	     45.69716931	      0.00000000	      0.00000000
     48.37200000	     -4.00949490	     -3.49306659	     -2.40470378	      1.11640923	      0.93364448	      0.41809164	     34.63709377	     -8.42008221	     -8.79573870	     46.20804422	     46.20804422	      3.16321996	    -10.65860692	      0.52922820	      8.85704440	     -3.64902097	    -12.90166219	     17.12923588	     17.12923588	     14.96466404	     -3.46920971	     -6.09213096	    -10.44336262	      4.06306239	      1.56047126	      2.17484016	    -13.66062921	     -5.69337610	     52.16909713	     46.44644664	      0.00000000	      0.00000000	     26.09379341	    -16.78914896	      5.95579695	     34.76888867	     45.77846203	      0.00000000	      0.00000000
     48.38371429	     -4.08121245	     -3.40903867	     -2.50559550	      1.11594297	      0.93303091	      0.41818677	     34.58355082	     -8.14709057	     -9.03038369	     42.04680779	     42.04680779	      2.53233952	     -9.91729692	      0.39241720	      8.09385782	     -3.48930083	    -12.99731161	     16.73270545	     16.73270545	     15.24740177	     -3.36224686	     -6.39261228	    -10.35440408	      4.10515087	      0.98414960	      2.10560144	    -12.60043319	     -8.11614381	     44.85018088	     46.75115691	      0.00000000	      0.00000000	     27.14441345	    -17.72391929	      5.00571354	     36.52221288	     45.92881738	      0.00000000	      0.00000000
     48.39542857	     -4.05682947	     -3.33037676	     -2.65919897	      1.11573825	      0.93239668	      0.41845962	     34.28309665	     -7.80939569	     -9.38689706	     37.76585799	     37.76585799	      2.18297878	     -8.73572053	      0.93337865	      7.15577550	     -3.32954908	    -13.17208418	     16.26695327	     16.26695327	     15.66105418	     -3.19191182	     -6.51763379	    -10.45693652	      4.15536787	      1.49893806	     -0.11309457	    -12.77596843	     -8.43199436	     42.15960365	     46.83210173	      0.00000000	      0.00000000	     28.80846051	    -17.89693288	      4.52970535	     38.27050013	     46.01824308	      0.00000000	      0.00000000
     48.40714286	     -4.05704285	     -3.20870637	     -2.80528731	      1.11561237	      0.93160013	      0.41885864	     33.89883930	     -7.45184417	     -9.79498580	     33.43049152	     33.43049152	      1.82644026	     -7.22668899	      1.48589364	      6.23139095	     -3.13642794	    -13.39429342	     15.77779817	     15.77779817	     15.98349037	     -2.91688119	     -6.67990464	    -10.54332638	      4.21715788	      1.89977808	     -1.87412472	    -12.75169991	     -8.94557781	     38.80581021	     46.95359597	      0.00000000	      0.00000000	     30.20340759	    -18.13003320	      3.96090693	     40.23162691	     46.11330656	      0.00000000	      0.00000000
     48.41885714	     -4.12082888	     -3.06442599	     -2.94756755	      1.11583220	      0.93060326	      0.41944189	     33.41575519	     -7.05630820	    -10.31274450	     29.03279391	     29.03279391	      1.45100733	     -5.39951253	      2.10753908	      5.31355905	     -2.92392568	    -13.59802260	     15.21359956	     15.21359956	     16.27240950	     -2.60669065	     -7.07898520	    -10.38711103	      4.17427661	      1.21720157	     -1.43560707	    -12.10334728	    -11.53693226	     31.52589438	     47.30454261	      0.00000000	      0.00000000	     30.14285657	    -19.11555209	      2.09102281	     44.02667487	     46.34618025	      0.00000000	      0.00000000
     48.43057143	     -4.19230390	     -2.95763480	     -3.08764447	      1.11618046	      0.92936494	      0.42021051	     32.86052988	     -6.52768655	    -10.79803012	     24.76854370	     24.76854370	      1.15198155	     -3.58080762	      3.10883004	      4.43211763	     -2.75717615	    -13.75763628	     14.73293633	     14.73293633	     16.66587907	     -2.39574019	     -7.21794962	    -10.27817633	      4.22746284	      1.54064882	     -3.60382149	    -12.23733691	    -11.69422744	     30.01869503	     47.34978725	      0.00000000	      0.00000000	     31.44716671	    -19.33274009	      1.74215951	     45.45563706	     46.40881764	      0.00000000	      0.00000000
     48.44228571	     -4.02109577	     -2.68951697	     -3.27833441	      1.11701102	      0.92818781	      0.42107177	     32.20150292	     -6.27587401	    -11.65062864	     21.22295931	     21.22295931	      1.50095156	     -0.74254615	      4.96005403	      3.08695574	     -2.37910538	    -14.16399631	     13.93223538	     13.93223538	     16.97872218	     -1.81399313	     -7.55397932	    -10.43284405	      4.01133969	      2.26046490	     -5.32986241	    -12.27560550	    -12.38449494	     26.73907469	     47.49705959	      0.00000000	      0.00000000	     32.35739373	    -19.28780549	      0.94263221	     48.80739513	     46.53135338	      0.00000000	      0.00000000
     48.45400000	     -3.98956594	     -2.56579992	     -3.40118809	      1.11786279	      0.92674465	      0.42215827	     31.72546513	     -5.80617402	    -12.32516274	     18.20259429	     18.20259429	      2.56890645	      1.55912683	      9.33527801	      2.00055271	     -2.17876989	    -14.30296765	     13.31957584	     13.31957584	     17.21198410	     -1.64000683	     -8.04513195	    -10.40113382	      3.99715913	      1.66050339	     -5.69700681	    -12.12840931	    -14.19991516	     22.70706843	     47.76480552	      0.00000000	      0.00000000	     31.89949711	    -20.26075058	     -0.64635626	     53.18780005	     46.73098574	      0.00000000	      0.00000000
     48.46571429	     -3.89718679	     -2.37872228	     -3.53947920	      1.11896634	      0.92512588	      0.42347712	     31.14142582	     -5.34314606	    -12.86263490	     15.47583450	     15.47583450	      2.62137597	      3.32381331	     10.49950385	      0.82281327	     -1.91799129	    -14.50976695	     12.71059613	     12.71059613	     17.61338948	     -1.29782462	     -8.17193948	    -10.41464483	      3.86592916	      2.22700355	     -7.78145910	    -12.13449936	    -14.43409534	     21.39856461	     47.81728584	      0.00000000	      0.00000000	     33.04522161	    -20.17910507	     -1.00491366	     55.10141521	     46.79959309	      0.00000000	      0.00000000
